<?xml version="1.0" encoding="utf-8"?>
<!-- Generator: Adobe Illustrator 18.1.1, SVG Export Plug-In . SVG Version: 6.00 Build 0)  -->
<svg version="1.1" id="Layer_1" xmlns="http://www.w3.org/2000/svg" xmlns:xlink="http://www.w3.org/1999/xlink" x="0px" y="0px"
	 viewBox="-623.3 388.8 32.5 24.5" enable-background="new -623.3 388.8 32.5 24.5" xml:space="preserve">
<g id="XMLID_1_">
	<g>
		<polygon fill="#FFFFFF" points="-616.6,397 -610.3,407.5 -620.1,397 		"/>
		<polygon fill="#FFFFFF" points="-610.5,397 -608.1,409.3 -615.4,397 		"/>
		<polygon fill="#FFFFFF" points="-593.1,396 -597.3,396 -600,393.3 -597.7,391.4 		"/>
		<polygon fill="#FFFFFF" points="-593.9,397 -603.7,407.5 -597.4,397 		"/>
		<polygon fill="#FFFFFF" points="-598.6,397 -605.9,409.3 -603.5,397 		"/>
		<polygon fill="#FFFFFF" points="-598.7,396 -603.2,396 -600.8,394 		"/>
		<polygon fill="#FFFFFF" points="-598.8,391 -600.7,392.6 -602.3,391 		"/>
		<polygon fill="#FFFFFF" points="-601.5,393.3 -604,395.4 -606.2,393.5 -603.5,391.2 		"/>
		<polygon fill="#FFFFFF" points="-604.5,397 -607,409.5 -609.5,397 		"/>
		<polygon fill="#FFFFFF" points="-604.8,391 -607,392.9 -609.2,391 		"/>
		<polygon fill="#FFFFFF" points="-604.8,396 -609.2,396 -607,394.2 		"/>
		<polygon fill="#FFFFFF" points="-607.8,393.5 -610,395.4 -612.5,393.3 -610.5,391.2 		"/>
		<polygon fill="#FFFFFF" points="-610.8,396 -615.3,396 -613.2,394 		"/>
		<polygon fill="#FFFFFF" points="-611.7,391 -613.3,392.6 -615.2,391 		"/>
		<polygon fill="#FFFFFF" points="-614,393.3 -616.7,396 -621,396 -616.3,391.4 		"/>
	</g>
	<g>
	</g>
</g>
</svg>
