<?xml version="1.0" encoding="utf-8"?>
<!-- Generator: Adobe Illustrator 18.1.1, SVG Export Plug-In . SVG Version: 6.00 Build 0)  -->
<svg version="1.1" id="Layer_1" xmlns="http://www.w3.org/2000/svg" xmlns:xlink="http://www.w3.org/1999/xlink" x="0px" y="0px"
	 viewBox="320.7 0.6 638.6 637.9" enable-background="new 320.7 0.6 638.6 637.9" xml:space="preserve">
<path fill="#FFFFFF" d="M792.5,1.2C778.2,2.4,763.7,5.4,750,10c-0.4,0.1-0.8-0.1-1.2,0c-0.8,0.3-1.7-0.3-2.5,0v1.2
	c-25.4,7.6-44.5,22-58.8,36.2l-76.2,76.2l-27.5,28.8l56.2,56.2l28.8-28.8l75-76.2c8.8-8.8,22.4-16.6,26.2-17.5
	c1.3-0.4,2.5-0.8,3.8-1.2c31.2-11.4,59.2-5.8,80,17.5c1.2,0.9,2.5,1.8,3.8,2.5c31.1,28.5,31.8,78.2-1.2,111.2l-76.2,75L751.2,320
	l56.2,56.2l28.8-27.5l76.2-76.2c61.8-61.8,62.7-162.6,1.2-222.5c-1.1-1.1-1.3-2.7-2.5-3.8l-1.2,1.2c-21.1-22.2-47.1-37.8-75-43.8
	C820.9,0.7,806.8,0,792.5,1.2L792.5,1.2z M373.8,40c-10.5,3.3-16.4,14.6-13,25.1c1.1,3.3,2.9,6.3,5.5,8.6l80,80
	c5.8,9.4,18.1,12.3,27.5,6.5c9.4-5.8,12.3-18.1,6.5-27.5c-1.6-2.7-3.9-4.9-6.5-6.5l-80-80c-4.5-4.8-11-7.2-17.5-6.2
	C375.4,39.9,374.6,39.9,373.8,40L373.8,40z M533.8,40c-8.6,2.8-14.2,11-13.8,20v80c0,11,9,20,20,20s20-9,20-20V60
	c0.2-11-8.6-20.2-19.6-20.4c-1.4,0-2.8,0.1-4.1,0.4C535.4,39.9,534.6,39.9,533.8,40L533.8,40z M373.8,200
	c-11,1.7-18.6,12.1-16.9,23.1c1.7,11,12.1,18.6,23.1,16.9h80c11,0,20-9,20-20s-9-20-20-20h-80c-1.3-0.1-2.5-0.1-3.8,0
	C375.4,199.9,374.6,199.9,373.8,200L373.8,200z M476.3,260l-28.8,27.5l-80,80c-61.8,61.8-62.7,162.6-1.2,222.5
	c1.1,1.1,1.3,2.7,2.5,3.8l1.2-1.2c42.4,44.6,105.4,55.9,160,37.5c0.2-0.3,0.9,0.1,1.2,0c0.8-0.3,1.7,0.3,2.5,0v-1.2
	c25.4-7.6,44.5-22,58.8-36.2l80-80l27.5-28.8l-56.2-56.2l-27.5,28.8l-80,80c-8.8,8.8-22.4,16.6-26.2,17.5c-1.3,0.4-2.5,0.8-3.8,1.2
	c-31.2,11.4-59.2,5.8-80-17.5c-1.2-0.9-2.5-1.8-3.8-2.5c-31.1-28.5-31.8-78.2,1.2-111.2l80-80l28.8-27.5L476.3,260L476.3,260z
	 M813.8,400c-11,1.7-18.6,12.1-16.9,23.1S809,441.7,820,440h80c11,0,20-9,20-20s-9-20-20-20h-80c-1.3-0.1-2.5-0.1-3.8,0
	C815.4,399.9,814.6,399.9,813.8,400L813.8,400z M733.8,480c-8.6,2.8-14.2,11-13.8,20v80c0,11,9,20,20,20c11,0,20-9,20-20v-80
	c0.2-11-8.6-20.2-19.6-20.4c-1.4,0-2.8,0.1-4.1,0.4C735.4,479.9,734.6,479.9,733.8,480L733.8,480z M813.8,480
	c-10.5,3.3-16.4,14.6-13,25.1c1.1,3.3,2.9,6.3,5.5,8.6l80,80c5.8,9.4,18.1,12.3,27.5,6.5s12.3-18.1,6.5-27.5
	c-1.6-2.7-3.9-4.9-6.5-6.5l-80-80c-4.5-4.8-11-7.2-17.5-6.2C815.4,479.9,814.6,479.9,813.8,480L813.8,480z"/>
</svg>
